<svg xmlns="http://www.w3.org/2000/svg"
shape-rendering="geometricPrecision"
width="4000" height="4000" viewBox="0 0 635 635"><rect width="100%" height="100%" fill="#E3E2E3" />
  <metadata>null</metadata>

<path d="
M 28.479 434.105
C 29.591 426.139 31.996 419.032 36.638 412.372
C 46.994 397.513 66.766 391.949 83.849 396.672
C 92.193 398.979 97.939 403.914 104.252 409.495
C 103.749 410.636 102.204 411.612 101.302 412.453
C 98.864 414.725 96.439 418.142 93.566 419.829
C 91.553 418.511 89.948 416.607 87.957 415.235
C 84.48 412.838 80.525 411.093 76.346 410.387
C 72.398 409.721 68.392 409.854 64.493 410.811
C 61.112 411.64 57.717 413.108 54.939 415.219
C 39.622 426.857 39.765 452.033 56.701 462.249
C 59.86 464.154 63.516 465.387 67.156 465.935
C 71.567 466.599 76.222 466.134 80.48 464.846
C 85.553 463.311 89.985 460.025 93.637 456.255
C 94.359 456.14 95.634 457.817 96.163 458.342
C 98.05 460.213 99.99 462.058 101.787 464.017
C 102.439 464.727 103.521 465.567 103.799 466.49
C 102.767 468.99 99.32 470.993 97.206 472.495
C 90.337 477.376 82.76 480.257 74.348 480.847
C 68.939 481.227 63.616 480.735 58.387 479.26
C 38.568 473.668 26.788 454.177 28.479 434.105 Z"
opacity="1" fill="rgb(22,29,52)" fill-rule="evenodd" />
<path d="
M 110.446 444.101
C 112.805 424.941 134.56 413.041 152.3 419.809
C 166.768 425.33 174.461 439.28 172.573 454.443
C 172.153 457.819 171.059 461.144 169.473 464.146
C 167.799 467.314 165.794 470.288 163.135 472.717
C 151.31 483.519 132.381 483.257 120.39 472.946
C 112.154 465.865 109.154 454.587 110.446 444.101 Z
M 124.45 446.608
C 124.083 449.591 124.301 453.058 125.366 455.898
C 128.752 464.931 139.894 469.556 148.725 465.53
C 154.302 462.987 157.976 457.495 158.709 451.467
C 160.497 436.758 142.746 425.296 130.795 435.41
C 129.196 436.762 127.739 438.382 126.711 440.209
C 125.601 442.185 124.728 444.344 124.45 446.608 Z"
opacity="1" fill="rgb(22,29,52)" fill-rule="evenodd" />
<path d="
M 180.922 444.605
C 182.08 437.016 185.157 430.128 191.028 424.998
C 201.252 416.066 219.927 414.763 229.514 425.406
C 229.784 424.774 229.399 423.753 229.394 423.077
C 229.379 421.098 229.444 419.116 229.447 417.137
C 229.458 410.018 229.603 402.908 229.562 395.788
C 230.951 395.147 232.786 395.394 234.295 395.391
C 237.44 395.385 241.087 394.905 244.17 395.542
C 244.127 414.517 244.183 433.515 244.197 452.5
C 244.202 458.666 244.202 464.833 244.205 471
C 244.206 473.784 243.785 476.972 244.163 479.71
C 239.483 479.754 234.542 479.219 229.897 479.651
C 229.863 478.284 229.767 476.864 229.856 475.5
C 229.892 474.951 230.117 474.022 229.723 473.635
C 217.399 484.498 197.471 482.688 187.366 469.565
C 181.842 462.392 179.848 453.53 180.922 444.605 Z
M 195.373 446.085
C 194.896 448.73 195.056 451.45 195.745 454.039
C 199.457 467.969 219.06 471.914 227.095 459.371
C 228.276 457.528 229.049 455.521 229.457 453.37
C 230.163 449.649 229.974 445.595 228.538 442.061
C 225.327 434.166 215.673 429.71 207.561 432.208
C 201.299 434.136 196.533 439.661 195.373 446.085 Z"
opacity="1" fill="rgb(22,29,52)" fill-rule="evenodd" />
<path d="
M 202.956 175.101
C 204.116 169.031 205.541 163.357 208.476 157.862
C 215.415 144.867 228.866 135.474 243.432 133.25
C 252.357 131.887 261.995 132.848 271.009 132.855
C 286.675 132.869 302.341 132.845 318.007 132.837
C 329.34 132.832 340.674 132.818 352.008 132.857
C 354.923 132.867 357.837 132.876 360.751 132.89
C 362.076 132.897 363.709 132.616 364.815 133.464
C 365.461 134.616 365.136 136.226 365.144 137.5
C 365.165 140.805 365.142 144.112 365.169 147.417
C 365.18 148.895 365.479 150.72 364.251 151.807
C 361.788 152.678 358.107 151.937 355.508 151.931
C 349.006 151.916 342.504 151.882 336.003 151.869
C 314.001 151.826 292 151.829 269.998 151.816
C 257.65 151.808 243.452 149.555 232.996 157.455
C 227.453 161.644 223.343 168.159 221.921 174.975
C 220.411 182.211 221.306 190.159 221.359 197.505
C 221.575 227.502 221.34 257.506 221.347 287.504
C 221.35 301.078 219.092 316.079 229.045 326.913
C 232.507 330.68 237.18 333.749 242.155 335.055
C 246.237 336.127 250.383 335.938 254.564 335.934
C 259.71 335.928 264.857 335.931 270.004 335.933
C 301.72 335.943 333.447 335.628 365.163 335.915
C 373.316 335.988 382.36 337.178 390.372 335.477
C 397.236 334.019 403.123 329.987 407.442 324.528
C 414.194 315.994 413.201 304.696 413.211 294.506
C 413.231 274.957 412.917 255.376 413.227 235.833
C 414.576 234.831 416.911 235.273 418.505 235.258
C 422.817 235.218 427.133 235.216 431.442 235.26
C 431.888 254.153 431.416 273.097 431.448 292.006
C 431.459 298.789 432.012 305.844 431.236 312.589
C 430.237 321.267 426.808 330.157 421.215 336.936
C 413.537 346.241 402.628 352.784 390.623 354.528
C 381.647 355.832 372.055 354.858 363.002 354.867
C 330.168 354.899 297.335 354.854 264.502 354.884
C 257.637 354.89 250.496 355.395 243.687 354.375
C 233.219 352.805 222.925 347.569 215.714 339.78
C 209.098 332.633 204.576 323.599 203.129 313.934
C 201.793 305.011 202.636 295.511 202.643 286.507
C 202.661 262.007 202.678 237.506 202.696 213.006
C 202.701 205.174 202.702 197.341 202.677 189.508
C 202.662 184.737 202.317 179.843 202.956 175.101 Z"
opacity="1" fill="rgb(23,29,52)" fill-rule="evenodd" />
<path d="
M 239.968 251.113
C 240.621 245.371 241.726 239.994 244.577 234.877
C 252.225 221.153 269.258 214.708 284.021 219.902
C 288.194 221.37 290.76 224.026 294.032 226.775
C 294.28 226.633 294.069 225.314 294.073 225.011
C 294.106 222.986 293.842 220.769 294.254 218.786
C 297.824 218.853 301.425 218.775 304.998 218.693
C 306.788 218.652 308.872 218.374 310.623 218.726
C 310.655 233.644 310.54 248.576 310.587 263.499
C 310.604 268.666 310.601 273.832 310.594 278.999
C 310.591 281.797 310.853 284.773 310.448 287.542
C 309.033 288.034 306.992 287.677 305.501 287.668
C 301.793 287.647 298.093 287.583 294.388 287.509
C 294.025 285.211 294.695 282.923 294.518 280.63
C 292.989 281.578 291.725 283.062 290.166 284.048
C 285.754 286.84 280.614 288.464 275.419 288.845
C 254.425 290.382 238.636 271.234 239.968 251.113 Z
M 256.503 253.628
C 256.435 269.417 275.18 278.495 287.525 268.782
C 289.445 267.271 291.047 265.43 292.22 263.285
C 293.922 260.177 294.571 256.787 294.593 253.264
C 294.612 250.109 294.046 247.082 292.679 244.225
C 287.392 233.176 272.36 230.549 263.301 238.323
C 261.117 240.198 259.502 242.586 258.311 245.189
C 257.1 247.833 256.516 250.72 256.503 253.628 Z"
opacity="1" fill="rgb(22,29,52)" fill-rule="evenodd" />
<path d="
M 255.452 445.607
C 257.641 432.31 266.195 421.054 280.053 418.545
C 292.65 416.263 305.879 421.988 311.716 433.594
C 313.557 437.254 314.368 441.163 314.793 445.212
C 315.093 448.076 315.623 451.588 314.865 454.399
C 305.895 454.227 296.879 454.461 287.904 454.544
C 281.965 454.599 276.002 454.387 270.076 454.735
C 270.228 456.693 271.102 458.455 272.16 460.078
C 277.024 467.539 286.911 468.744 294.8 466.109
C 298.324 464.932 300.93 462.504 304.122 460.78
C 306.5 462.144 308.665 465.744 310.522 467.784
C 311.141 468.464 312.37 469.415 312.335 470.39
C 311.627 472.138 309.065 473.425 307.589 474.491
C 302.265 478.335 295.587 480.521 289.041 480.743
C 283.629 480.926 278.186 480.28 273.196 478.062
C 260.707 472.511 253.975 458.978 255.452 445.607 Z
M 269.965 443.103
C 269.887 443.327 269.808 443.552 269.729 443.777
C 276.652 443.741 283.577 443.864 290.502 443.829
C 293.706 443.812 297.198 444.17 300.368 443.693
C 300.768 442.551 299.851 440.544 299.388 439.518
C 297.497 435.336 293.477 432.326 289.036 431.364
C 280.169 429.443 272.623 434.777 269.965 443.103 Z"
opacity="1" fill="rgb(23,30,52)" fill-rule="evenodd" />
<path d="
M 325.285 195.347
C 330.752 195.184 336.23 195.289 341.7 195.234
C 342.465 198.469 341.761 202.671 341.753 206.003
C 341.736 212.878 342.101 219.849 341.744 226.71
C 341.998 227.103 343.106 225.536 343.398 225.229
C 344.361 224.216 345.482 223.41 346.637 222.634
C 350.384 220.116 354.695 218.613 359.188 218.224
C 371.995 217.115 384.294 223.513 390.727 234.722
C 400.768 252.218 394.564 275.729 376.81 285.442
C 369.111 289.655 359.156 290.039 351.076 286.728
C 348.559 285.697 346.094 284.304 344.102 282.438
C 343.743 282.101 343.332 281.848 342.98 281.505
C 342.637 281.172 342.442 280.389 341.973 280.484
C 341.391 280.601 341.959 281.673 341.915 282.265
C 341.784 284.014 341.598 285.984 341.792 287.722
C 338.053 287.944 334.243 287.755 330.496 287.751
C 328.933 287.75 326.672 288.177 325.225 287.633
C 325.273 265.925 325.094 244.213 325.099 222.504
C 325.101 216.171 325.115 209.837 325.11 203.504
C 325.108 201.134 324.409 197.536 325.285 195.347 Z
M 341.444 250.613
C 340.979 255.512 341.695 260.446 344.435 264.624
C 349.107 271.746 359.325 275.028 367.207 271.434
C 373.49 268.568 377.899 262.362 378.614 255.49
C 378.938 252.375 378.668 249.224 377.587 246.276
C 373.136 234.148 357.692 229.476 347.662 238.067
C 345.869 239.603 344.523 241.636 343.461 243.727
C 342.378 245.861 341.671 248.227 341.444 250.613 Z"
opacity="1" fill="rgb(23,30,52)" fill-rule="evenodd" />
<path d="
M 326.82 395.808
C 329.876 394.561 334.716 395.446 338.008 395.418
C 338.729 395.412 341.35 395.02 341.745 395.555
C 341.958 402.014 341.675 408.534 341.67 414.999
C 341.667 418.394 342.269 422.408 341.5 425.72
C 341.408 425.88 342.794 424.518 343.102 424.241
C 344.25 423.21 345.496 422.31 346.819 421.509
C 350.958 419.002 355.767 417.849 360.587 417.855
C 373.956 417.87 386.092 427.22 389.226 440.356
C 392.779 455.249 386.669 472.407 371.918 478.562
C 368.88 479.83 365.546 480.479 362.266 480.665
C 359.066 480.846 355.856 480.675 352.773 479.745
C 348.467 478.446 344.951 476.08 341.548 473.206
C 341.754 475.35 341.784 477.502 341.653 479.652
C 336.813 479.133 331.761 480.057 326.89 479.673
C 326.121 470.921 326.843 461.794 326.806 453.004
C 326.727 433.94 326.8 414.872 326.82 395.808 Z
M 341.436 446.1
C 340.976 449.286 341.159 452.95 342.29 455.984
C 345.886 465.631 358.809 470.266 367.649 464.52
C 372.056 461.656 374.896 456.614 375.573 451.455
C 375.93 448.732 375.718 445.948 374.861 443.339
C 370.405 429.777 350.985 427.29 343.636 439.813
C 342.5 441.75 341.757 443.872 341.436 446.1 Z"
opacity="1" fill="rgb(23,29,52)" fill-rule="evenodd" />
<path d="
M 379.769 133.947
C 379.839 133.795 379.91 133.642 379.98 133.49
C 381.339 132.74 383.139 133.001 384.648 133.032
C 387.602 133.094 390.55 133.182 393.505 133.159
C 394.88 133.149 396.739 132.81 398 133.397
C 398.931 135.253 398.483 137.419 398.435 139.425
C 398.344 143.253 399.064 147.645 398.307 151.392
C 397.184 152.818 395.502 152.624 393.869 152.505
C 390.763 152.278 387.549 152.515 384.437 152.585
C 382.934 152.618 381.305 152.929 380.076 151.892
C 379.257 150.634 379.731 148.456 379.731 147.002
C 379.732 142.672 379.504 138.267 379.769 133.947 Z"
opacity="1" fill="rgb(22,29,53)" fill-rule="evenodd" />
<path d="
M 379.871 168.574
C 379.935 168.345 379.999 168.115 380.063 167.886
C 382.04 166.936 384.363 167.288 386.504 167.284
C 390.185 167.278 394.25 166.798 397.882 167.4
C 398.629 168.991 398.398 170.786 398.393 172.505
C 398.383 175.423 398.332 178.341 398.335 181.259
C 398.337 182.771 398.729 184.922 397.693 186.157
C 396.361 186.737 394.431 186.458 393.007 186.441
C 390.173 186.407 387.335 186.423 384.501 186.459
C 383.085 186.477 381.413 186.813 380.306 185.771
C 379.458 184.429 379.891 182.045 379.896 180.501
C 379.908 176.563 379.59 172.495 379.871 168.574 Z"
opacity="1" fill="rgb(22,28,52)" fill-rule="evenodd" />
<path d="
M 392.464 419.633
C 395.68 419.124 399.023 419.332 402.275 419.311
C 404.103 419.299 406.185 419.013 407.981 419.359
C 411.927 428.9 416.222 438.314 420.206 447.846
C 421.865 451.813 423.941 455.803 425.186 459.916
C 425.655 459.891 426.209 457.922 426.376 457.494
C 427.334 455.047 428.343 452.617 429.338 450.185
C 432.195 443.195 434.9 436.141 437.773 429.157
C 439.041 426.075 439.973 422.765 441.465 419.789
C 443.369 419.334 445.556 419.603 447.506 419.59
C 450.896 419.569 454.309 419.425 457.691 419.65
C 457.367 422.201 455.537 425.187 454.485 427.537
C 452.168 432.715 449.817 437.879 447.457 443.037
C 442.12 454.703 437.284 466.641 432.28 478.454
C 429.913 484.041 427.989 490.548 423.99 495.229
C 418.502 501.652 409.403 502.416 401.613 500.936
C 399.828 500.597 395.161 500.072 394.253 498.245
C 395.715 494.462 396.951 490.603 398.4 486.816
C 399.982 487.044 401.513 487.887 403.141 488.139
C 408.95 489.037 414.149 487.283 416.658 481.669
C 417.167 480.532 417.865 478.889 417.76 477.62
C 417.608 475.778 416.338 473.552 415.653 471.838
C 413.984 467.667 412.181 463.515 410.299 459.437
C 406.247 450.657 402.384 441.803 398.469 432.964
C 396.496 428.509 393.926 424.279 392.464 419.633 Z"
opacity="1" fill="rgb(23,30,52)" fill-rule="evenodd" />
<path d="
M 412.984 141.62
C 413.347 139.024 412.468 135.862 413.397 133.397
C 417.64 132.73 422.207 133.252 426.503 133.174
C 427.723 133.152 430.51 132.646 431.432 133.471
C 432.004 136.194 431.657 139.227 431.654 141.999
C 431.651 145.111 432.027 148.492 431.557 151.565
C 430.824 152.759 428.644 152.56 427.402 152.499
C 424.229 152.344 421.023 152.504 417.849 152.554
C 416.455 152.575 414.583 152.963 413.411 152.05
C 412.763 151.097 412.86 149.938 412.861 148.827
C 412.864 146.434 412.818 144.008 412.984 141.62 Z"
opacity="1" fill="rgb(23,30,53)" fill-rule="evenodd" />
<path d="
M 413.271 167.772
C 414.973 167.103 416.707 167.287 418.504 167.272
C 421.338 167.248 424.172 167.262 427.006 167.251
C 428.173 167.246 430.47 166.753 431.319 167.647
C 431.942 169.599 431.587 171.96 431.581 173.992
C 431.571 177.869 431.972 182.01 431.307 185.838
C 430.54 186.982 428.123 186.614 426.943 186.598
C 423.799 186.556 420.641 186.576 417.498 186.633
C 416.112 186.658 414.596 186.963 413.498 185.944
C 412.691 184.615 413.109 182.513 413.111 181.002
C 413.115 176.765 412.465 171.928 413.271 167.772 Z"
opacity="1" fill="rgb(23,29,53)" fill-rule="evenodd" />
<path d="
M 413.425 201.902
C 414.661 201.057 416.332 201.341 417.755 201.347
C 420.807 201.361 423.861 201.35 426.913 201.341
C 428.179 201.337 430.334 200.925 431.356 201.752
C 432.092 205.149 431.594 209.028 431.591 212.494
C 431.589 215.024 431.961 217.833 431.238 220.278
C 427.333 221.288 422.42 220.403 418.392 220.458
C 416.836 220.48 414.695 220.96 413.423 219.884
C 412.884 218.552 413.149 216.92 413.155 215.505
C 413.166 212.672 413.188 209.84 413.185 207.008
C 413.183 205.387 412.822 203.427 413.425 201.902 Z"
opacity="1" fill="rgb(23,30,52)" fill-rule="evenodd" />
<path d="
M 452.48 478.58
C 455.754 469.576 459.59 460.758 463.055 451.824
C 470.339 433.046 477.647 414.274 485.314 395.657
C 490.775 395.16 496.251 395.717 501.712 395.577
C 502.539 396.789 502.921 398.447 503.485 399.804
C 504.879 403.158 506.13 406.561 507.481 409.932
C 511.576 420.149 515.454 430.449 519.434 440.712
C 522.731 449.212 526.159 457.654 529.42 466.167
C 531.039 470.393 533.61 475.048 534.4 479.502
C 533.31 479.991 531.193 479.587 530 479.598
C 526.176 479.63 521.833 480.14 518.067 479.445
C 515.398 473.513 513.842 467.062 510.974 461.21
C 506.395 460.78 501.603 461.143 497.002 461.152
C 489.992 461.166 482.945 460.98 475.942 461.317
C 474.893 462.442 474.577 464.315 474.012 465.723
C 472.75 468.864 471.52 472.022 470.24 475.155
C 469.688 476.504 469.264 478.524 468.29 479.61
C 462.965 480.052 457.542 479.316 452.21 479.491
C 452.288 478.906 452.211 479.213 452.48 478.58 Z
M 481.983 446.129
C 481.913 446.325 481.842 446.52 481.771 446.715
C 489.508 446.298 497.257 446.47 504.999 446.332
C 504.915 443.731 502.859 440.382 501.905 437.95
C 500.075 433.283 498.284 428.605 496.409 423.956
C 495.535 421.789 494.915 418.845 493.55 416.987
C 489.915 424.279 487.225 432.341 484.27 439.947
C 483.483 441.973 482.961 444.192 481.983 446.129 Z"
opacity="1" fill="rgb(42,183,78)" fill-rule="evenodd" />
<path d="
M 543.02 396.102
C 543.018 395.93 543.017 395.758 543.016 395.586
C 544.321 394.932 546.254 395.306 547.694 395.327
C 550.998 395.376 554.591 394.968 557.852 395.491
C 557.825 402.321 557.994 409.167 557.922 416.005
C 557.888 419.27 558.189 422.761 557.505 425.974
C 559.586 424.602 561.158 422.595 563.343 421.28
C 568.348 418.266 574.626 417.316 580.396 418.013
C 588.133 418.947 595.525 422.978 600.281 429.206
C 608.923 440.524 608.596 458.353 600.006 469.571
C 592.699 479.111 579.593 482.578 568.223 479.714
C 565.356 478.991 562.487 477.695 560.205 475.795
C 559.528 475.231 558.394 473.482 557.474 473.877
C 557.503 475.696 557.112 477.76 557.393 479.537
C 556.945 480.02 554.666 479.676 554 479.689
C 550.349 479.759 546.684 479.585 543.038 479.764
C 542.282 478.42 542.887 475.066 542.889 473.495
C 542.897 467.996 542.891 462.497 542.883 456.998
C 542.863 443.165 542.884 429.332 542.901 415.499
C 542.908 409.148 543.582 402.405 543.02 396.102 Z
M 557.423 446.093
C 556.991 448.506 557.133 451.184 557.669 453.569
C 560.865 467.79 580.234 472.062 588.759 459.948
C 590.231 457.857 591.1 455.413 591.55 452.914
C 592.132 449.683 592.059 446.199 591.057 443.06
C 587.579 432.172 573.796 427.97 564.47 434.401
C 560.699 437.001 558.218 441.655 557.423 446.093 Z"
opacity="1" fill="rgb(41,182,77)" fill-rule="evenodd" />

</svg>